<svg width="131" height="151" viewBox="0 0 131 151" fill="none" xmlns="http://www.w3.org/2000/svg">
<path fill-rule="evenodd" clip-rule="evenodd" d="M129.08 113.525C128.268 114.704 127.442 115.069 127.442 115.069C127.442 115.069 77.2201 144.818 69.6392 149.242C69.1495 149.533 68.8873 149.689 68.8873 149.689C68.8873 149.689 67.7707 150.424 65.9162 150.391C64.0613 150.447 62.9352 149.726 62.9352 149.726C62.9352 149.726 62.6687 149.572 62.1713 149.284C54.5144 144.939 3.96287 115.821 3.96287 115.821C3.96287 115.821 3.13236 115.466 2.30676 114.298C0.729672 112.843 0.677402 110.946 0.677402 110.946C0.677402 110.946 0.65617 106.881 0.623014 100.705C0.524711 86.0726 0.353543 55.55 0.300061 45.9338C0.290988 44.7303 0.282623 43.703 0.275133 42.8846C0.261532 42.7336 0.238905 42.3808 0.265413 41.8955C0.259457 41.3412 0.254268 40.9653 0.249925 40.7911C0.17311 37.6856 3.99178 35.3291 3.99178 35.3291L61.4913 1.25988C62.7164 0.596637 63.9331 0.387224 65.0005 0.397001C66.0682 0.373939 67.288 0.568338 68.5219 1.21701L126.432 34.583C126.432 34.583 130.279 36.8928 130.24 39.9989C130.238 40.1733 130.238 40.5492 130.238 41.1035C130.271 41.5884 130.252 41.9415 130.241 42.0926C130.243 42.9116 130.247 43.9396 130.253 45.144C130.317 54.7622 130.517 85.2809 130.597 99.9129C130.64 106.088 130.668 110.154 130.668 110.154C130.668 110.154 130.639 112.051 129.08 113.525ZM107.182 40.2807C95.325 33.4783 67.3916 17.3443 67.3916 17.3443C67.3916 17.3443 66.4462 16.8352 65.1008 16.7236C63.757 16.8516 62.818 17.3722 62.818 17.3722C62.818 17.3722 35.0832 33.8454 23.3101 40.7917L62.6204 64.5349C62.6204 64.5349 64.5126 65.7827 65.4168 68.5653C66.287 65.7719 68.1639 64.5011 68.1639 64.5011L107.182 40.2807ZM65.9597 83.5267L115.879 52.5276C115.898 55.2915 115.926 59.6539 115.958 64.6478L116.098 86.76C116.139 93.6112 116.169 99.0651 116.169 100.47C116.17 105.342 113.665 106.444 113.665 106.444C113.665 106.444 70.4842 131.941 67.6766 133.539C66.9976 133.838 66.3727 133.992 65.816 134.056C65.2585 133.999 64.6317 133.852 63.949 133.562C61.1221 131.998 17.6336 107.029 17.6336 107.029C17.6336 107.029 15.1154 105.957 15.0568 101.086C15.0401 99.6813 15.0038 94.2274 14.9616 87.3762L14.8314 65.264C14.8025 60.2701 14.7779 55.9076 14.7626 53.1437L65.0562 83.5322L65.0596 84.0857L65.5097 83.8062L65.9631 84.0802L65.9597 83.5267Z" fill="#14CCD8"/>
</svg>
