<svg width="534" height="408" viewBox="0 0 534 408" fill="none" xmlns="http://www.w3.org/2000/svg">
<mask id="mask0_108_67" style="mask-type:alpha" maskUnits="userSpaceOnUse" x="0" y="29" width="207" height="207">
<path d="M103.5 236C160.661 236 207 189.661 207 132.5C207 75.3385 160.661 29 103.5 29C46.3385 29 0 75.3385 0 132.5C0 189.661 46.3385 236 103.5 236Z" fill="#EEEBF7"/>
</mask>
<g mask="url(#mask0_108_67)">
<path d="M103.5 236C160.661 236 207 189.661 207 132.5C207 75.3385 160.661 29 103.5 29C46.3385 29 0 75.3385 0 132.5C0 189.661 46.3385 236 103.5 236Z" fill="#EEEBF7"/>
<path d="M73.5 265.5C130.385 265.5 176.5 219.385 176.5 162.5C176.5 105.615 130.385 59.5 73.5 59.5C16.6147 59.5 -29.5 105.615 -29.5 162.5C-29.5 219.385 16.6147 265.5 73.5 265.5Z" stroke="#432DD7"/>
<path d="M61.5 287.5C118.385 287.5 164.5 241.385 164.5 184.5C164.5 127.615 118.385 81.5 61.5 81.5C4.61467 81.5 -41.5 127.615 -41.5 184.5C-41.5 241.385 4.61467 287.5 61.5 287.5Z" stroke="#432DD7"/>
<path d="M49.5 309.5C106.385 309.5 152.5 263.385 152.5 206.5C152.5 149.615 106.385 103.5 49.5 103.5C-7.38533 103.5 -53.5 149.615 -53.5 206.5C-53.5 263.385 -7.38533 309.5 49.5 309.5Z" stroke="#432DD7"/>
<g opacity="0.4" filter="url(#filter0_f_108_67)">
</g>
</g>
<mask id="mask1_108_67" style="mask-type:alpha" maskUnits="userSpaceOnUse" x="83" y="103" width="330" height="233">
<path d="M383 103H113C96.4315 103 83 116.431 83 133V306C83 322.569 96.4315 336 113 336H383C399.569 336 413 322.569 413 306V133C413 116.431 399.569 103 383 103Z" fill="#3547AC"/>
</mask>
<g mask="url(#mask1_108_67)">
<path d="M383 103H113C96.4315 103 83 116.431 83 133V306C83 322.569 96.4315 336 113 336H383C399.569 336 413 322.569 413 306V133C413 116.431 399.569 103 383 103Z" fill="#3547AC"/>
<path d="M392 378C427.899 378 457 348.899 457 313C457 277.101 427.899 248 392 248C356.101 248 327 277.101 327 313C327 348.899 356.101 378 392 378Z" stroke="#DCE2F4" stroke-width="14"/>
<path d="M392.5 348C412.658 348 429 331.658 429 311.5C429 291.342 412.658 275 392.5 275C372.342 275 356 291.342 356 311.5C356 331.658 372.342 348 392.5 348Z" stroke="white" stroke-width="14"/>
<path d="M148 163C156.284 163 163 156.284 163 148C163 139.716 156.284 133 148 133C139.716 133 133 139.716 133 148C133 156.284 139.716 163 148 163Z" fill="#F79F19"/>
<path d="M128 163C136.284 163 143 156.284 143 148C143 139.716 136.284 133 128 133C119.716 133 113 139.716 113 148C113 156.284 119.716 163 128 163Z" fill="#EB001B"/>
<path d="M114.584 209.674C114.584 209.102 114.716 208.581 114.98 208.112C115.259 207.628 115.633 207.254 116.102 206.99C116.586 206.711 117.107 206.572 117.664 206.572C118.236 206.572 118.757 206.711 119.226 206.99C119.695 207.254 120.062 207.628 120.326 208.112C120.605 208.581 120.744 209.102 120.744 209.674C120.744 210.231 120.605 210.745 120.326 211.214C120.062 211.683 119.695 212.057 119.226 212.336C118.757 212.6 118.236 212.732 117.664 212.732C117.107 212.732 116.586 212.6 116.102 212.336C115.633 212.057 115.259 211.683 114.98 211.214C114.716 210.745 114.584 210.231 114.584 209.674ZM128.418 209.674C128.418 209.102 128.55 208.581 128.814 208.112C129.093 207.628 129.467 207.254 129.936 206.99C130.42 206.711 130.941 206.572 131.498 206.572C132.07 206.572 132.591 206.711 133.06 206.99C133.53 207.254 133.896 207.628 134.16 208.112C134.439 208.581 134.578 209.102 134.578 209.674C134.578 210.231 134.439 210.745 134.16 211.214C133.896 211.683 133.53 212.057 133.06 212.336C132.591 212.6 132.07 212.732 131.498 212.732C130.941 212.732 130.42 212.6 129.936 212.336C129.467 212.057 129.093 211.683 128.814 211.214C128.55 210.745 128.418 210.231 128.418 209.674ZM142.252 209.674C142.252 209.102 142.384 208.581 142.648 208.112C142.927 207.628 143.301 207.254 143.77 206.99C144.254 206.711 144.775 206.572 145.332 206.572C145.904 206.572 146.425 206.711 146.894 206.99C147.364 207.254 147.73 207.628 147.994 208.112C148.273 208.581 148.412 209.102 148.412 209.674C148.412 210.231 148.273 210.745 147.994 211.214C147.73 211.683 147.364 212.057 146.894 212.336C146.425 212.6 145.904 212.732 145.332 212.732C144.775 212.732 144.254 212.6 143.77 212.336C143.301 212.057 142.927 211.683 142.648 211.214C142.384 210.745 142.252 210.231 142.252 209.674ZM156.087 209.674C156.087 209.102 156.219 208.581 156.483 208.112C156.761 207.628 157.135 207.254 157.605 206.99C158.089 206.711 158.609 206.572 159.167 206.572C159.739 206.572 160.259 206.711 160.729 206.99C161.198 207.254 161.565 207.628 161.829 208.112C162.107 208.581 162.247 209.102 162.247 209.674C162.247 210.231 162.107 210.745 161.829 211.214C161.565 211.683 161.198 212.057 160.729 212.336C160.259 212.6 159.739 212.732 159.167 212.732C158.609 212.732 158.089 212.6 157.605 212.336C157.135 212.057 156.761 211.683 156.483 211.214C156.219 210.745 156.087 210.231 156.087 209.674ZM187.753 214.558C192.725 211.111 195.211 208.251 195.211 205.978C195.211 205.289 195.042 204.746 194.705 204.35C194.382 203.954 193.869 203.756 193.165 203.756C191.713 203.756 190.943 204.746 190.855 206.726H187.841C187.929 204.893 188.486 203.507 189.513 202.568C190.54 201.615 191.838 201.138 193.407 201.138C195.006 201.138 196.23 201.556 197.081 202.392C197.946 203.213 198.379 204.313 198.379 205.692C198.379 206.777 198.056 207.87 197.411 208.97C196.78 210.055 195.974 211.06 194.991 211.984C194.008 212.893 192.974 213.678 191.889 214.338H198.687V216.868H187.753V214.558ZM204.724 214.558C209.696 211.111 212.182 208.251 212.182 205.978C212.182 205.289 212.013 204.746 211.676 204.35C211.353 203.954 210.84 203.756 210.136 203.756C208.684 203.756 207.914 204.746 207.826 206.726H204.812C204.9 204.893 205.457 203.507 206.484 202.568C207.511 201.615 208.809 201.138 210.378 201.138C211.977 201.138 213.201 201.556 214.052 202.392C214.917 203.213 215.35 204.313 215.35 205.692C215.35 206.777 215.027 207.87 214.382 208.97C213.751 210.055 212.945 211.06 211.962 211.984C210.979 212.893 209.945 213.678 208.86 214.338H215.658V216.868H204.724V214.558ZM221.915 209.102C221.915 214.367 223.895 217 227.855 217C229.952 217 231.463 216.296 232.387 214.888C233.311 213.48 233.773 211.551 233.773 209.102C233.773 206.667 233.311 204.746 232.387 203.338C231.463 201.93 229.952 201.226 227.855 201.226C223.895 201.226 221.915 203.851 221.915 209.102ZM230.715 209.102C230.715 210.701 230.517 211.933 230.121 212.798C229.739 213.649 228.984 214.074 227.855 214.074C226.711 214.074 225.941 213.649 225.545 212.798C225.163 211.933 224.973 210.701 224.973 209.102C224.973 207.518 225.163 206.301 225.545 205.45C225.941 204.585 226.711 204.152 227.855 204.152C228.984 204.152 229.739 204.585 230.121 205.45C230.517 206.301 230.715 207.518 230.715 209.102ZM240.787 205.01C240.787 204.262 240.993 203.565 241.403 202.92C241.829 202.275 242.452 201.754 243.273 201.358C244.109 200.962 245.114 200.764 246.287 200.764C247.461 200.764 248.458 200.962 249.279 201.358C250.115 201.754 250.739 202.275 251.149 202.92C251.575 203.565 251.787 204.262 251.787 205.01C251.787 205.861 251.582 206.587 251.171 207.188C250.761 207.775 250.145 208.215 249.323 208.508C250.247 208.86 250.951 209.373 251.435 210.048C251.934 210.708 252.183 211.515 252.183 212.468C252.183 213.495 251.927 214.382 251.413 215.13C250.9 215.863 250.196 216.421 249.301 216.802C248.421 217.183 247.417 217.374 246.287 217.374C245.158 217.374 244.146 217.183 243.251 216.802C242.371 216.421 241.675 215.863 241.161 215.13C240.663 214.382 240.413 213.495 240.413 212.468C240.413 211.515 240.655 210.708 241.139 210.048C241.638 209.373 242.349 208.86 243.273 208.508C242.452 208.215 241.829 207.767 241.403 207.166C240.993 206.565 240.787 205.846 240.787 205.01ZM243.845 205.516C243.845 206.22 244.065 206.763 244.505 207.144C244.945 207.525 245.539 207.716 246.287 207.716C247.05 207.716 247.651 207.525 248.091 207.144C248.531 206.763 248.751 206.22 248.751 205.516C248.751 204.812 248.524 204.269 248.069 203.888C247.629 203.492 247.035 203.294 246.287 203.294C245.554 203.294 244.96 203.492 244.505 203.888C244.065 204.269 243.845 204.812 243.845 205.516ZM243.427 212.292C243.427 213.069 243.684 213.685 244.197 214.14C244.711 214.595 245.407 214.822 246.287 214.822C247.167 214.822 247.864 214.595 248.377 214.14C248.905 213.685 249.169 213.069 249.169 212.292C249.169 211.5 248.898 210.899 248.355 210.488C247.827 210.063 247.138 209.85 246.287 209.85C245.451 209.85 244.762 210.063 244.219 210.488C243.691 210.899 243.427 211.5 243.427 212.292ZM276.675 204.372V201.468H282.263V217H279.007V204.372H276.675ZM292.495 212.38C292.729 213.905 293.521 214.668 294.871 214.668C295.897 214.668 296.638 214.221 297.093 213.326C297.547 212.417 297.745 211.001 297.687 209.08C297.452 209.784 296.99 210.349 296.301 210.774C295.626 211.185 294.834 211.39 293.925 211.39C292.429 211.39 291.248 210.943 290.383 210.048C289.532 209.139 289.107 207.855 289.107 206.198C289.107 205.186 289.312 204.284 289.723 203.492C290.133 202.685 290.742 202.055 291.549 201.6C292.37 201.145 293.36 200.918 294.519 200.918C296.777 200.918 298.332 201.607 299.183 202.986C300.033 204.35 300.459 206.249 300.459 208.684C300.459 211.456 300.026 213.561 299.161 214.998C298.31 216.435 296.88 217.154 294.871 217.154C293.8 217.154 292.876 216.941 292.099 216.516C291.336 216.091 290.742 215.519 290.317 214.8C289.906 214.067 289.664 213.26 289.591 212.38H292.495ZM297.423 206.418C297.423 205.597 297.181 204.922 296.697 204.394C296.227 203.851 295.531 203.58 294.607 203.58C293.815 203.58 293.184 203.815 292.715 204.284C292.245 204.753 292.011 205.406 292.011 206.242C292.011 207.122 292.245 207.804 292.715 208.288C293.199 208.757 293.844 208.992 294.651 208.992C295.399 208.992 296.044 208.772 296.587 208.332C297.144 207.877 297.423 207.239 297.423 206.418ZM310.282 212.38C310.517 213.905 311.309 214.668 312.658 214.668C313.685 214.668 314.425 214.221 314.88 213.326C315.335 212.417 315.533 211.001 315.474 209.08C315.239 209.784 314.777 210.349 314.088 210.774C313.413 211.185 312.621 211.39 311.712 211.39C310.216 211.39 309.035 210.943 308.17 210.048C307.319 209.139 306.894 207.855 306.894 206.198C306.894 205.186 307.099 204.284 307.51 203.492C307.921 202.685 308.529 202.055 309.336 201.6C310.157 201.145 311.147 200.918 312.306 200.918C314.565 200.918 316.119 201.607 316.97 202.986C317.821 204.35 318.246 206.249 318.246 208.684C318.246 211.456 317.813 213.561 316.948 214.998C316.097 216.435 314.667 217.154 312.658 217.154C311.587 217.154 310.663 216.941 309.886 216.516C309.123 216.091 308.529 215.519 308.104 214.8C307.693 214.067 307.451 213.26 307.378 212.38H310.282ZM315.21 206.418C315.21 205.597 314.968 204.922 314.484 204.394C314.015 203.851 313.318 203.58 312.394 203.58C311.602 203.58 310.971 203.815 310.502 204.284C310.033 204.753 309.798 205.406 309.798 206.242C309.798 207.122 310.033 207.804 310.502 208.288C310.986 208.757 311.631 208.992 312.438 208.992C313.186 208.992 313.831 208.772 314.374 208.332C314.931 207.877 315.21 207.239 315.21 206.418ZM333.019 205.692C332.785 204.167 332.007 203.404 330.687 203.404C329.661 203.404 328.913 203.859 328.443 204.768C327.974 205.663 327.769 207.071 327.827 208.992C328.062 208.288 328.517 207.731 329.191 207.32C329.881 206.895 330.68 206.682 331.589 206.682C333.085 206.682 334.259 207.137 335.109 208.046C335.975 208.941 336.407 210.217 336.407 211.874C336.407 212.901 336.202 213.81 335.791 214.602C335.381 215.394 334.765 216.017 333.943 216.472C333.137 216.927 332.154 217.154 330.995 217.154C328.737 217.154 327.182 216.457 326.331 215.064C325.481 213.656 325.055 211.72 325.055 209.256C325.055 206.425 325.51 204.328 326.419 202.964C327.343 201.6 328.832 200.918 330.885 200.918C332.455 200.918 333.657 201.365 334.493 202.26C335.329 203.155 335.806 204.299 335.923 205.692H333.019ZM328.091 211.654C328.091 212.475 328.326 213.157 328.795 213.7C329.279 214.228 329.983 214.492 330.907 214.492C331.699 214.492 332.33 214.257 332.799 213.788C333.269 213.319 333.503 212.666 333.503 211.83C333.503 210.95 333.261 210.275 332.777 209.806C332.308 209.337 331.67 209.102 330.863 209.102C330.101 209.102 329.448 209.322 328.905 209.762C328.363 210.202 328.091 210.833 328.091 211.654Z" fill="white"/>
<path d="M366.86 105.352V108.656H354.988V105.352H366.86ZM391.872 111.372C391.872 112.343 391.62 113.257 391.116 114.116C390.631 114.956 389.903 115.656 388.932 116.216C387.98 116.757 386.851 117.075 385.544 117.168V119.436H383.752V117.14C381.885 116.972 380.383 116.412 379.244 115.46C378.105 114.489 377.517 113.183 377.48 111.54H381.68C381.792 112.884 382.483 113.696 383.752 113.976V108.628C382.408 108.292 381.325 107.956 380.504 107.62C379.683 107.284 378.973 106.743 378.376 105.996C377.779 105.249 377.48 104.232 377.48 102.944C377.48 101.32 378.059 99.9947 379.216 98.968C380.392 97.9413 381.904 97.3533 383.752 97.204V94.936H385.544V97.204C387.336 97.3533 388.764 97.8947 389.828 98.828C390.911 99.7613 391.517 101.049 391.648 102.692H387.42C387.364 102.151 387.168 101.684 386.832 101.292C386.515 100.881 386.085 100.592 385.544 100.424V105.716C386.944 106.071 388.045 106.416 388.848 106.752C389.669 107.069 390.379 107.601 390.976 108.348C391.573 109.076 391.872 110.084 391.872 111.372ZM381.568 102.748C381.568 103.364 381.755 103.868 382.128 104.26C382.501 104.633 383.043 104.941 383.752 105.184V100.34C383.08 100.433 382.548 100.685 382.156 101.096C381.764 101.507 381.568 102.057 381.568 102.748ZM385.544 114.032C386.253 113.901 386.804 113.612 387.196 113.164C387.607 112.716 387.812 112.175 387.812 111.54C387.812 110.924 387.616 110.429 387.224 110.056C386.832 109.683 386.272 109.375 385.544 109.132V114.032ZM397.032 112.576C398.824 111.083 400.252 109.841 401.316 108.852C402.38 107.844 403.267 106.799 403.976 105.716C404.686 104.633 405.04 103.569 405.04 102.524C405.04 101.572 404.816 100.825 404.368 100.284C403.92 99.7427 403.23 99.472 402.296 99.472C401.363 99.472 400.644 99.7893 400.14 100.424C399.636 101.04 399.375 101.889 399.356 102.972H395.548C395.623 100.732 396.286 99.0333 397.536 97.876C398.806 96.7187 400.411 96.14 402.352 96.14C404.48 96.14 406.114 96.7093 407.252 97.848C408.391 98.968 408.96 100.452 408.96 102.3C408.96 103.756 408.568 105.147 407.784 106.472C407 107.797 406.104 108.955 405.096 109.944C404.088 110.915 402.772 112.091 401.148 113.472H409.408V116.72H395.576V113.808L397.032 112.576ZM411.879 106.528C411.879 103.299 412.457 100.769 413.615 98.94C414.791 97.1107 416.732 96.196 419.439 96.196C422.145 96.196 424.077 97.1107 425.235 98.94C426.411 100.769 426.999 103.299 426.999 106.528C426.999 109.776 426.411 112.324 425.235 114.172C424.077 116.02 422.145 116.944 419.439 116.944C416.732 116.944 414.791 116.02 413.615 114.172C412.457 112.324 411.879 109.776 411.879 106.528ZM423.135 106.528C423.135 105.147 423.041 103.989 422.855 103.056C422.687 102.104 422.332 101.329 421.791 100.732C421.268 100.135 420.484 99.836 419.439 99.836C418.393 99.836 417.6 100.135 417.059 100.732C416.536 101.329 416.181 102.104 415.995 103.056C415.827 103.989 415.743 105.147 415.743 106.528C415.743 107.947 415.827 109.141 415.995 110.112C416.163 111.064 416.517 111.839 417.059 112.436C417.6 113.015 418.393 113.304 419.439 113.304C420.484 113.304 421.277 113.015 421.819 112.436C422.36 111.839 422.715 111.064 422.883 110.112C423.051 109.141 423.135 107.947 423.135 106.528ZM434.712 112.884L431.436 120.752H428.916L430.736 112.884H434.712ZM450.809 99.976H441.737V104.764C442.129 104.279 442.689 103.887 443.417 103.588C444.145 103.271 444.92 103.112 445.741 103.112C447.235 103.112 448.457 103.439 449.409 104.092C450.361 104.745 451.052 105.585 451.481 106.612C451.911 107.62 452.125 108.703 452.125 109.86C452.125 112.007 451.509 113.733 450.277 115.04C449.064 116.347 447.328 117 445.069 117C442.941 117 441.243 116.468 439.973 115.404C438.704 114.34 437.985 112.949 437.817 111.232H441.625C441.793 111.979 442.167 112.576 442.745 113.024C443.343 113.472 444.099 113.696 445.013 113.696C446.115 113.696 446.945 113.351 447.505 112.66C448.065 111.969 448.345 111.055 448.345 109.916C448.345 108.759 448.056 107.881 447.477 107.284C446.917 106.668 446.087 106.36 444.985 106.36C444.201 106.36 443.548 106.556 443.025 106.948C442.503 107.34 442.129 107.863 441.905 108.516H438.153V96.532H450.809V99.976ZM455.109 106.528C455.109 103.299 455.688 100.769 456.845 98.94C458.021 97.1107 459.962 96.196 462.669 96.196C465.376 96.196 467.308 97.1107 468.465 98.94C469.641 100.769 470.229 103.299 470.229 106.528C470.229 109.776 469.641 112.324 468.465 114.172C467.308 116.02 465.376 116.944 462.669 116.944C459.962 116.944 458.021 116.02 456.845 114.172C455.688 112.324 455.109 109.776 455.109 106.528ZM466.365 106.528C466.365 105.147 466.272 103.989 466.085 103.056C465.917 102.104 465.562 101.329 465.021 100.732C464.498 100.135 463.714 99.836 462.669 99.836C461.624 99.836 460.83 100.135 460.289 100.732C459.766 101.329 459.412 102.104 459.225 103.056C459.057 103.989 458.973 105.147 458.973 106.528C458.973 107.947 459.057 109.141 459.225 110.112C459.393 111.064 459.748 111.839 460.289 112.436C460.83 113.015 461.624 113.304 462.669 113.304C463.714 113.304 464.508 113.015 465.049 112.436C465.59 111.839 465.945 111.064 466.113 110.112C466.281 109.141 466.365 107.947 466.365 106.528ZM473.211 106.528C473.211 103.299 473.789 100.769 474.947 98.94C476.123 97.1107 478.064 96.196 480.771 96.196C483.477 96.196 485.409 97.1107 486.567 98.94C487.743 100.769 488.331 103.299 488.331 106.528C488.331 109.776 487.743 112.324 486.567 114.172C485.409 116.02 483.477 116.944 480.771 116.944C478.064 116.944 476.123 116.02 474.947 114.172C473.789 112.324 473.211 109.776 473.211 106.528ZM484.467 106.528C484.467 105.147 484.373 103.989 484.187 103.056C484.019 102.104 483.664 101.329 483.123 100.732C482.6 100.135 481.816 99.836 480.771 99.836C479.725 99.836 478.932 100.135 478.391 100.732C477.868 101.329 477.513 102.104 477.327 103.056C477.159 103.989 477.075 105.147 477.075 106.528C477.075 107.947 477.159 109.141 477.327 110.112C477.495 111.064 477.849 111.839 478.391 112.436C478.932 113.015 479.725 113.304 480.771 113.304C481.816 113.304 482.609 113.015 483.151 112.436C483.692 111.839 484.047 111.064 484.215 110.112C484.383 109.141 484.467 107.947 484.467 106.528Z" fill="#111111"/>
</g>
<g filter="url(#filter1_i_108_67)">
<path d="M442 40H386C362.804 40 344 58.804 344 82V143C344 166.196 362.804 185 386 185H442C465.196 185 484 166.196 484 143V82C484 58.804 465.196 40 442 40Z" fill="white"/>
<path d="M113.72 299.152C115.608 297.904 117.112 296.651 118.232 295.392C119.363 294.133 119.928 292.955 119.928 291.856C119.928 291.163 119.747 290.603 119.384 290.176C119.021 289.739 118.435 289.52 117.624 289.52C116.792 289.52 116.157 289.781 115.72 290.304C115.293 290.816 115.053 291.515 115 292.4H113.896C113.971 291.173 114.349 290.229 115.032 289.568C115.715 288.896 116.605 288.56 117.704 288.56C118.707 288.56 119.517 288.832 120.136 289.376C120.755 289.92 121.064 290.715 121.064 291.76C121.064 292.645 120.771 293.552 120.184 294.48C119.597 295.397 118.867 296.251 117.992 297.04C117.117 297.819 116.227 298.48 115.32 299.024H121.384V299.952H113.72V299.152ZM123.054 294.304C123.054 296.128 123.337 297.547 123.902 298.56C124.478 299.563 125.491 300.064 126.942 300.064C128.382 300.064 129.39 299.563 129.966 298.56C130.542 297.547 130.83 296.128 130.83 294.304C130.83 292.491 130.542 291.083 129.966 290.08C129.39 289.077 128.382 288.576 126.942 288.576C125.491 288.576 124.478 289.077 123.902 290.08C123.337 291.083 123.054 292.491 123.054 294.304ZM129.71 294.304C129.71 295.296 129.635 296.133 129.486 296.816C129.347 297.488 129.075 298.021 128.67 298.416C128.265 298.811 127.689 299.008 126.942 299.008C126.185 299.008 125.603 298.811 125.198 298.416C124.793 298.021 124.515 297.488 124.366 296.816C124.227 296.133 124.158 295.296 124.158 294.304C124.158 293.323 124.227 292.496 124.366 291.824C124.515 291.152 124.793 290.619 125.198 290.224C125.603 289.829 126.185 289.632 126.942 289.632C127.689 289.632 128.265 289.829 128.67 290.224C129.075 290.619 129.347 291.152 129.486 291.824C129.635 292.496 129.71 293.323 129.71 294.304ZM137.509 284.96L133.109 302.672H132.021L136.405 284.96H137.509ZM138.423 299.152C140.311 297.904 141.815 296.651 142.935 295.392C144.066 294.133 144.631 292.955 144.631 291.856C144.631 291.163 144.45 290.603 144.087 290.176C143.724 289.739 143.138 289.52 142.327 289.52C141.495 289.52 140.86 289.781 140.423 290.304C139.996 290.816 139.756 291.515 139.703 292.4H138.599C138.674 291.173 139.052 290.229 139.735 289.568C140.418 288.896 141.308 288.56 142.407 288.56C143.41 288.56 144.22 288.832 144.839 289.376C145.458 289.92 145.767 290.715 145.767 291.76C145.767 292.645 145.474 293.552 144.887 294.48C144.3 295.397 143.57 296.251 142.695 297.04C141.82 297.819 140.93 298.48 140.023 299.024H146.087V299.952H138.423V299.152ZM147.229 297.28V296.352L153.181 288.672H154.381V296.288H156.141V297.28H154.381V300H153.245V297.28H147.229ZM153.325 290.064L148.429 296.288H153.325V290.064Z" fill="white"/>
<path d="M375.548 141.438C375.548 141.905 375.436 142.339 375.212 142.74C374.988 143.141 374.648 143.468 374.19 143.72C373.733 143.972 373.168 144.098 372.496 144.098C371.843 144.098 371.26 143.981 370.746 143.748C370.242 143.505 369.836 143.179 369.528 142.768C369.23 142.348 369.057 141.872 369.01 141.34H370.368C370.396 141.62 370.49 141.895 370.648 142.166C370.816 142.427 371.05 142.647 371.348 142.824C371.656 142.992 372.025 143.076 372.454 143.076C373.014 143.076 373.444 142.927 373.742 142.628C374.041 142.329 374.19 141.947 374.19 141.48C374.19 141.079 374.083 140.752 373.868 140.5C373.663 140.248 373.406 140.052 373.098 139.912C372.79 139.763 372.37 139.604 371.838 139.436C371.213 139.231 370.709 139.039 370.326 138.862C369.953 138.675 369.631 138.4 369.36 138.036C369.099 137.672 368.968 137.191 368.968 136.594C368.968 136.081 369.09 135.628 369.332 135.236C369.584 134.844 369.939 134.541 370.396 134.326C370.863 134.111 371.409 134.004 372.034 134.004C373.005 134.004 373.775 134.242 374.344 134.718C374.914 135.185 375.245 135.782 375.338 136.51H373.966C373.892 136.118 373.691 135.773 373.364 135.474C373.038 135.175 372.594 135.026 372.034 135.026C371.521 135.026 371.11 135.161 370.802 135.432C370.494 135.693 370.34 136.067 370.34 136.552C370.34 136.935 370.438 137.247 370.634 137.49C370.84 137.723 371.092 137.91 371.39 138.05C371.689 138.181 372.1 138.33 372.622 138.498C373.257 138.703 373.766 138.899 374.148 139.086C374.54 139.273 374.872 139.557 375.142 139.94C375.413 140.313 375.548 140.813 375.548 141.438ZM384.093 136.314V144H382.819V142.194C382.623 142.819 382.273 143.3 381.769 143.636C381.275 143.963 380.696 144.126 380.033 144.126C379.147 144.126 378.428 143.841 377.877 143.272C377.327 142.693 377.051 141.867 377.051 140.794V136.314H378.325V140.668C378.325 141.433 378.521 142.026 378.913 142.446C379.305 142.857 379.837 143.062 380.509 143.062C381.209 143.062 381.769 142.838 382.189 142.39C382.609 141.933 382.819 141.27 382.819 140.402V136.314H384.093ZM389.536 136.216C390.516 136.216 391.328 136.477 391.972 137C392.616 137.523 393.013 138.223 393.162 139.1H391.818C391.725 138.549 391.468 138.12 391.048 137.812C390.638 137.495 390.124 137.336 389.508 137.336C389.06 137.336 388.65 137.439 388.276 137.644C387.912 137.849 387.618 138.167 387.394 138.596C387.17 139.016 387.058 139.539 387.058 140.164C387.058 140.789 387.17 141.317 387.394 141.746C387.618 142.166 387.912 142.479 388.276 142.684C388.65 142.889 389.06 142.992 389.508 142.992C390.124 142.992 390.638 142.833 391.048 142.516C391.468 142.199 391.725 141.765 391.818 141.214H393.162C393.013 142.101 392.616 142.805 391.972 143.328C391.328 143.841 390.516 144.098 389.536 144.098C388.799 144.098 388.146 143.939 387.576 143.622C387.007 143.305 386.559 142.852 386.232 142.264C385.915 141.667 385.756 140.967 385.756 140.164C385.756 139.361 385.915 138.661 386.232 138.064C386.559 137.467 387.007 137.009 387.576 136.692C388.146 136.375 388.799 136.216 389.536 136.216ZM398.232 136.216C399.212 136.216 400.024 136.477 400.668 137C401.312 137.523 401.708 138.223 401.858 139.1H400.514C400.42 138.549 400.164 138.12 399.744 137.812C399.333 137.495 398.82 137.336 398.204 137.336C397.756 137.336 397.345 137.439 396.972 137.644C396.608 137.849 396.314 138.167 396.09 138.596C395.866 139.016 395.754 139.539 395.754 140.164C395.754 140.789 395.866 141.317 396.09 141.746C396.314 142.166 396.608 142.479 396.972 142.684C397.345 142.889 397.756 142.992 398.204 142.992C398.82 142.992 399.333 142.833 399.744 142.516C400.164 142.199 400.42 141.765 400.514 141.214H401.858C401.708 142.101 401.312 142.805 400.668 143.328C400.024 143.841 399.212 144.098 398.232 144.098C397.494 144.098 396.841 143.939 396.272 143.622C395.702 143.305 395.254 142.852 394.928 142.264C394.61 141.667 394.452 140.967 394.452 140.164C394.452 139.361 394.61 138.661 394.928 138.064C395.254 137.467 395.702 137.009 396.272 136.692C396.841 136.375 397.494 136.216 398.232 136.216ZM410.595 139.73C410.595 140.001 410.576 140.234 410.539 140.43H404.393C404.421 141.307 404.668 141.965 405.135 142.404C405.611 142.843 406.19 143.062 406.871 143.062C407.487 143.062 408 142.908 408.411 142.6C408.831 142.283 409.088 141.863 409.181 141.34H410.539C410.446 141.872 410.236 142.348 409.909 142.768C409.592 143.188 409.176 143.515 408.663 143.748C408.15 143.981 407.571 144.098 406.927 144.098C406.19 144.098 405.536 143.939 404.967 143.622C404.398 143.305 403.95 142.852 403.623 142.264C403.306 141.667 403.147 140.967 403.147 140.164C403.147 139.361 403.306 138.661 403.623 138.064C403.95 137.467 404.398 137.009 404.967 136.692C405.536 136.375 406.19 136.216 406.927 136.216C407.674 136.216 408.322 136.375 408.873 136.692C409.433 137.009 409.858 137.434 410.147 137.966C410.446 138.498 410.595 139.086 410.595 139.73ZM409.307 139.814C409.335 139.245 409.242 138.769 409.027 138.386C408.812 138.003 408.518 137.719 408.145 137.532C407.772 137.345 407.366 137.252 406.927 137.252C406.227 137.252 405.639 137.471 405.163 137.91C404.687 138.339 404.43 138.974 404.393 139.814H409.307ZM414.669 136.216C415.537 136.216 416.233 136.445 416.755 136.902C417.287 137.35 417.609 137.957 417.721 138.722H416.503C416.447 138.265 416.256 137.891 415.929 137.602C415.612 137.303 415.183 137.154 414.641 137.154C414.184 137.154 413.825 137.266 413.563 137.49C413.311 137.705 413.185 137.999 413.185 138.372C413.185 138.652 413.269 138.881 413.437 139.058C413.615 139.226 413.829 139.357 414.081 139.45C414.343 139.534 414.697 139.627 415.145 139.73C415.715 139.861 416.172 139.996 416.517 140.136C416.872 140.267 417.171 140.481 417.413 140.78C417.665 141.079 417.791 141.48 417.791 141.984C417.791 142.609 417.553 143.118 417.077 143.51C416.611 143.902 415.985 144.098 415.201 144.098C414.287 144.098 413.54 143.879 412.961 143.44C412.383 143.001 412.042 142.39 411.939 141.606H413.171C413.218 142.073 413.419 142.451 413.773 142.74C414.137 143.029 414.613 143.174 415.201 143.174C415.64 143.174 415.981 143.062 416.223 142.838C416.475 142.614 416.601 142.32 416.601 141.956C416.601 141.657 416.513 141.419 416.335 141.242C416.158 141.065 415.939 140.929 415.677 140.836C415.416 140.743 415.057 140.645 414.599 140.542C414.03 140.411 413.573 140.281 413.227 140.15C412.891 140.019 412.602 139.814 412.359 139.534C412.126 139.245 412.009 138.857 412.009 138.372C412.009 137.728 412.247 137.21 412.723 136.818C413.199 136.417 413.848 136.216 414.669 136.216ZM421.902 136.216C422.77 136.216 423.465 136.445 423.988 136.902C424.52 137.35 424.842 137.957 424.954 138.722H423.736C423.68 138.265 423.488 137.891 423.162 137.602C422.844 137.303 422.415 137.154 421.874 137.154C421.416 137.154 421.057 137.266 420.796 137.49C420.544 137.705 420.418 137.999 420.418 138.372C420.418 138.652 420.502 138.881 420.67 139.058C420.847 139.226 421.062 139.357 421.314 139.45C421.575 139.534 421.93 139.627 422.378 139.73C422.947 139.861 423.404 139.996 423.75 140.136C424.104 140.267 424.403 140.481 424.646 140.78C424.898 141.079 425.024 141.48 425.024 141.984C425.024 142.609 424.786 143.118 424.31 143.51C423.843 143.902 423.218 144.098 422.434 144.098C421.519 144.098 420.772 143.879 420.194 143.44C419.615 143.001 419.274 142.39 419.172 141.606H420.404C420.45 142.073 420.651 142.451 421.006 142.74C421.37 143.029 421.846 143.174 422.434 143.174C422.872 143.174 423.213 143.062 423.456 142.838C423.708 142.614 423.834 142.32 423.834 141.956C423.834 141.657 423.745 141.419 423.568 141.242C423.39 141.065 423.171 140.929 422.91 140.836C422.648 140.743 422.289 140.645 421.832 140.542C421.262 140.411 420.805 140.281 420.46 140.15C420.124 140.019 419.834 139.814 419.592 139.534C419.358 139.245 419.242 138.857 419.242 138.372C419.242 137.728 419.48 137.21 419.956 136.818C420.432 136.417 421.08 136.216 421.902 136.216ZM435.421 144L432.845 139.968H431.459V144H430.185V134.13H433.433C434.553 134.13 435.393 134.401 435.953 134.942C436.513 135.474 436.793 136.183 436.793 137.07C436.793 137.873 436.569 138.521 436.121 139.016C435.673 139.501 435.024 139.805 434.175 139.926L436.863 144H435.421ZM431.459 139.044H433.321C434.768 139.044 435.491 138.409 435.491 137.14C435.491 135.871 434.768 135.236 433.321 135.236H431.459V139.044ZM441.497 136.216C442.244 136.216 442.874 136.403 443.387 136.776C443.91 137.149 444.274 137.649 444.479 138.274V136.314H445.753V144H444.479V142.04C444.274 142.665 443.91 143.165 443.387 143.538C442.874 143.911 442.244 144.098 441.497 144.098C440.816 144.098 440.209 143.939 439.677 143.622C439.145 143.305 438.725 142.852 438.417 142.264C438.119 141.667 437.969 140.967 437.969 140.164C437.969 139.361 438.119 138.661 438.417 138.064C438.725 137.467 439.145 137.009 439.677 136.692C440.209 136.375 440.816 136.216 441.497 136.216ZM441.861 137.35C441.077 137.35 440.447 137.602 439.971 138.106C439.505 138.601 439.271 139.287 439.271 140.164C439.271 141.041 439.505 141.732 439.971 142.236C440.447 142.731 441.077 142.978 441.861 142.978C442.365 142.978 442.813 142.861 443.205 142.628C443.607 142.395 443.919 142.068 444.143 141.648C444.367 141.219 444.479 140.724 444.479 140.164C444.479 139.604 444.367 139.109 444.143 138.68C443.919 138.251 443.607 137.924 443.205 137.7C442.813 137.467 442.365 137.35 441.861 137.35ZM451.449 142.88V144H450.497C449.713 144 449.125 143.813 448.733 143.44C448.35 143.067 448.159 142.441 448.159 141.564V137.42H447.011V136.314H448.159V134.396H449.447V136.314H451.435V137.42H449.447V141.592C449.447 142.087 449.535 142.427 449.713 142.614C449.899 142.791 450.217 142.88 450.665 142.88H451.449ZM460.073 139.73C460.073 140.001 460.055 140.234 460.017 140.43H453.871C453.899 141.307 454.147 141.965 454.613 142.404C455.089 142.843 455.668 143.062 456.349 143.062C456.965 143.062 457.479 142.908 457.889 142.6C458.309 142.283 458.566 141.863 458.659 141.34H460.017C459.924 141.872 459.714 142.348 459.387 142.768C459.07 143.188 458.655 143.515 458.141 143.748C457.628 143.981 457.049 144.098 456.405 144.098C455.668 144.098 455.015 143.939 454.445 143.622C453.876 143.305 453.428 142.852 453.101 142.264C452.784 141.667 452.625 140.967 452.625 140.164C452.625 139.361 452.784 138.661 453.101 138.064C453.428 137.467 453.876 137.009 454.445 136.692C455.015 136.375 455.668 136.216 456.405 136.216C457.152 136.216 457.801 136.375 458.351 136.692C458.911 137.009 459.336 137.434 459.625 137.966C459.924 138.498 460.073 139.086 460.073 139.73ZM458.785 139.814C458.813 139.245 458.72 138.769 458.505 138.386C458.291 138.003 457.997 137.719 457.623 137.532C457.25 137.345 456.844 137.252 456.405 137.252C455.705 137.252 455.117 137.471 454.641 137.91C454.165 138.339 453.909 138.974 453.871 139.814H458.785Z" fill="#627492"/>
</g>
<path d="M380.412 106.008C380.692 107.483 381.551 108.22 382.988 108.22C383.977 108.22 384.677 107.781 385.088 106.904C385.499 106.027 385.704 104.599 385.704 102.62C385.293 103.199 384.733 103.647 384.024 103.964C383.315 104.281 382.521 104.44 381.644 104.44C380.449 104.44 379.385 104.197 378.452 103.712C377.519 103.208 376.781 102.471 376.24 101.5C375.717 100.511 375.456 99.316 375.456 97.916C375.456 96.5347 375.736 95.3307 376.296 94.304C376.875 93.2773 377.687 92.484 378.732 91.924C379.796 91.364 381.047 91.084 382.484 91.084C385.247 91.084 387.179 91.9427 388.28 93.66C389.381 95.3773 389.932 97.9067 389.932 101.248C389.932 103.675 389.708 105.681 389.26 107.268C388.831 108.836 388.093 110.031 387.048 110.852C386.021 111.673 384.612 112.084 382.82 112.084C381.401 112.084 380.188 111.804 379.18 111.244C378.191 110.684 377.425 109.947 376.884 109.032C376.361 108.117 376.063 107.109 375.988 106.008H380.412ZM382.736 100.66C383.52 100.66 384.145 100.427 384.612 99.96C385.079 99.4747 385.312 98.8213 385.312 98C385.312 97.104 385.069 96.4133 384.584 95.928C384.099 95.4427 383.445 95.2 382.624 95.2C381.803 95.2 381.149 95.452 380.664 95.956C380.197 96.4413 379.964 97.1133 379.964 97.972C379.964 98.7747 380.197 99.428 380.664 99.932C381.149 100.417 381.84 100.66 382.736 100.66ZM392.487 101.5C392.487 98.2893 393.103 95.76 394.335 93.912C395.585 92.064 397.592 91.14 400.355 91.14C403.117 91.14 405.115 92.064 406.347 93.912C407.597 95.76 408.223 98.2893 408.223 101.5C408.223 104.748 407.597 107.296 406.347 109.144C405.115 110.992 403.117 111.916 400.355 111.916C397.592 111.916 395.585 110.992 394.335 109.144C393.103 107.296 392.487 104.748 392.487 101.5ZM403.519 101.5C403.519 99.6147 403.313 98.168 402.903 97.16C402.492 96.1333 401.643 95.62 400.355 95.62C399.067 95.62 398.217 96.1333 397.807 97.16C397.396 98.168 397.191 99.6147 397.191 101.5C397.191 102.769 397.265 103.824 397.415 104.664C397.564 105.485 397.863 106.157 398.311 106.68C398.777 107.184 399.459 107.436 400.355 107.436C401.251 107.436 401.923 107.184 402.371 106.68C402.837 106.157 403.145 105.485 403.295 104.664C403.444 103.824 403.519 102.769 403.519 101.5ZM413.468 112.224C412.628 112.224 411.938 111.981 411.396 111.496C410.874 110.992 410.612 110.376 410.612 109.648C410.612 108.901 410.874 108.276 411.396 107.772C411.938 107.268 412.628 107.016 413.468 107.016C414.29 107.016 414.962 107.268 415.484 107.772C416.026 108.276 416.296 108.901 416.296 109.648C416.296 110.376 416.026 110.992 415.484 111.496C414.962 111.981 414.29 112.224 413.468 112.224ZM433.047 95.732H424.311V99.596C424.684 99.1853 425.207 98.8493 425.879 98.588C426.551 98.3267 427.279 98.196 428.063 98.196C429.463 98.196 430.62 98.5133 431.535 99.148C432.468 99.7827 433.149 100.604 433.579 101.612C434.008 102.62 434.223 103.712 434.223 104.888C434.223 107.072 433.607 108.808 432.375 110.096C431.143 111.365 429.407 112 427.167 112C425.673 112 424.376 111.748 423.275 111.244C422.173 110.721 421.324 110.003 420.727 109.088C420.129 108.173 419.803 107.119 419.747 105.924H424.423C424.535 106.503 424.805 106.988 425.235 107.38C425.664 107.753 426.252 107.94 426.999 107.94C427.876 107.94 428.529 107.66 428.959 107.1C429.388 106.54 429.603 105.793 429.603 104.86C429.603 103.945 429.379 103.245 428.931 102.76C428.483 102.275 427.829 102.032 426.971 102.032C426.336 102.032 425.813 102.191 425.403 102.508C424.992 102.807 424.721 103.208 424.591 103.712H419.971V91.532H433.047V95.732ZM436.473 96.712C436.473 95.2 436.903 94.0333 437.761 93.212C438.639 92.3907 439.768 91.98 441.149 91.98C442.531 91.98 443.651 92.3907 444.509 93.212C445.368 94.0333 445.797 95.2 445.797 96.712C445.797 98.224 445.368 99.3907 444.509 100.212C443.651 101.033 442.531 101.444 441.149 101.444C439.768 101.444 438.639 101.033 437.761 100.212C436.903 99.3907 436.473 98.224 436.473 96.712ZM455.485 92.288L444.705 112H440.085L450.865 92.288H455.485ZM441.121 94.78C440.225 94.78 439.777 95.424 439.777 96.712C439.777 97.9813 440.225 98.616 441.121 98.616C441.551 98.616 441.887 98.4573 442.129 98.14C442.372 97.8227 442.493 97.3467 442.493 96.712C442.493 95.424 442.036 94.78 441.121 94.78ZM449.801 107.576C449.801 106.064 450.231 104.897 451.089 104.076C451.948 103.255 453.068 102.844 454.449 102.844C455.831 102.844 456.951 103.255 457.809 104.076C458.668 104.897 459.097 106.064 459.097 107.576C459.097 109.088 458.668 110.255 457.809 111.076C456.951 111.897 455.831 112.308 454.449 112.308C453.068 112.308 451.948 111.897 451.089 111.076C450.231 110.255 449.801 109.088 449.801 107.576ZM454.421 105.644C453.992 105.644 453.656 105.803 453.413 106.12C453.189 106.437 453.077 106.923 453.077 107.576C453.077 108.845 453.525 109.48 454.421 109.48C454.851 109.48 455.187 109.321 455.429 109.004C455.672 108.687 455.793 108.211 455.793 107.576C455.793 106.941 455.672 106.465 455.429 106.148C455.187 105.812 454.851 105.644 454.421 105.644Z" fill="#111111"/>
<path d="M131.64 259.49L127.932 272H125.61L122.982 262.532L120.192 272L117.888 272.018L114.342 259.49H116.52L119.112 269.678L121.92 259.49H124.224L126.834 269.624L129.444 259.49H131.64ZM134.16 272.126C133.788 272.126 133.476 272 133.224 271.748C132.972 271.496 132.846 271.184 132.846 270.812C132.846 270.44 132.972 270.128 133.224 269.876C133.476 269.624 133.788 269.498 134.16 269.498C134.52 269.498 134.826 269.624 135.078 269.876C135.33 270.128 135.456 270.44 135.456 270.812C135.456 271.184 135.33 271.496 135.078 271.748C134.826 272 134.52 272.126 134.16 272.126ZM139.726 261.146V264.818H144.046V266.492H139.726V270.326H144.586V272H137.674V259.472H144.586V261.146H139.726ZM147.942 272.126C147.57 272.126 147.258 272 147.006 271.748C146.754 271.496 146.628 271.184 146.628 270.812C146.628 270.44 146.754 270.128 147.006 269.876C147.258 269.624 147.57 269.498 147.942 269.498C148.302 269.498 148.608 269.624 148.86 269.876C149.112 270.128 149.238 270.44 149.238 270.812C149.238 271.184 149.112 271.496 148.86 271.748C148.608 272 148.302 272.126 147.942 272.126ZM160.203 263.216C160.203 263.852 160.053 264.452 159.753 265.016C159.453 265.58 158.973 266.042 158.313 266.402C157.653 266.75 156.807 266.924 155.775 266.924H153.507V272H151.455V259.49H155.775C156.735 259.49 157.545 259.658 158.205 259.994C158.877 260.318 159.375 260.762 159.699 261.326C160.035 261.89 160.203 262.52 160.203 263.216ZM155.775 265.25C156.555 265.25 157.137 265.076 157.521 264.728C157.905 264.368 158.097 263.864 158.097 263.216C158.097 261.848 157.323 261.164 155.775 261.164H153.507V265.25H155.775ZM162.989 272.126C162.617 272.126 162.305 272 162.053 271.748C161.801 271.496 161.675 271.184 161.675 270.812C161.675 270.44 161.801 270.128 162.053 269.876C162.305 269.624 162.617 269.498 162.989 269.498C163.349 269.498 163.655 269.624 163.907 269.876C164.159 270.128 164.285 270.44 164.285 270.812C164.285 271.184 164.159 271.496 163.907 271.748C163.655 272 163.349 272.126 162.989 272.126ZM170.624 272.126C169.784 272.126 169.028 271.982 168.356 271.694C167.684 271.394 167.156 270.974 166.772 270.434C166.388 269.894 166.196 269.264 166.196 268.544H168.392C168.44 269.084 168.65 269.528 169.022 269.876C169.406 270.224 169.94 270.398 170.624 270.398C171.332 270.398 171.884 270.23 172.28 269.894C172.676 269.546 172.874 269.102 172.874 268.562C172.874 268.142 172.748 267.8 172.496 267.536C172.256 267.272 171.95 267.068 171.578 266.924C171.218 266.78 170.714 266.624 170.066 266.456C169.25 266.24 168.584 266.024 168.068 265.808C167.564 265.58 167.132 265.232 166.772 264.764C166.412 264.296 166.232 263.672 166.232 262.892C166.232 262.172 166.412 261.542 166.772 261.002C167.132 260.462 167.636 260.048 168.284 259.76C168.932 259.472 169.682 259.328 170.534 259.328C171.746 259.328 172.736 259.634 173.504 260.246C174.284 260.846 174.716 261.674 174.8 262.73H172.532C172.496 262.274 172.28 261.884 171.884 261.56C171.488 261.236 170.966 261.074 170.318 261.074C169.73 261.074 169.25 261.224 168.878 261.524C168.506 261.824 168.32 262.256 168.32 262.82C168.32 263.204 168.434 263.522 168.662 263.774C168.902 264.014 169.202 264.206 169.562 264.35C169.922 264.494 170.414 264.65 171.038 264.818C171.866 265.046 172.538 265.274 173.054 265.502C173.582 265.73 174.026 266.084 174.386 266.564C174.758 267.032 174.944 267.662 174.944 268.454C174.944 269.09 174.77 269.69 174.422 270.254C174.086 270.818 173.588 271.274 172.928 271.622C172.28 271.958 171.512 272.126 170.624 272.126Z" fill="#FBF8F8"/>
<defs>
<filter id="filter0_f_108_67" x="43" y="196" width="406" height="212" filterUnits="userSpaceOnUse" color-interpolation-filters="sRGB">
<feFlood flood-opacity="0" result="BackgroundImageFix"/>
<feBlend mode="normal" in="SourceGraphic" in2="BackgroundImageFix" result="shape"/>
<feGaussianBlur stdDeviation="25" result="effect1_foregroundBlur_108_67"/>
</filter>
<filter id="filter1_i_108_67" x="113.72" y="40" width="370.28" height="272.672" filterUnits="userSpaceOnUse" color-interpolation-filters="sRGB">
<feFlood flood-opacity="0" result="BackgroundImageFix"/>
<feBlend mode="normal" in="SourceGraphic" in2="BackgroundImageFix" result="shape"/>
<feColorMatrix in="SourceAlpha" type="matrix" values="0 0 0 0 0 0 0 0 0 0 0 0 0 0 0 0 0 0 127 0" result="hardAlpha"/>
<feOffset dy="10"/>
<feGaussianBlur stdDeviation="25"/>
<feComposite in2="hardAlpha" operator="arithmetic" k2="-1" k3="1"/>
<feColorMatrix type="matrix" values="0 0 0 0 0.0717188 0 0 0 0 0.111921 0 0 0 0 0.3375 0 0 0 0.12 0"/>
<feBlend mode="normal" in2="shape" result="effect1_innerShadow_108_67"/>
</filter>
</defs>
</svg>
